<svg width="25" height="30" viewBox="0 0 25 30" fill="none" xmlns="http://www.w3.org/2000/svg">
<path d="M24.3987 7.55859H18.7802C18.1348 7.55859 17.2478 6.89844 17.2478 6.23984V0.527344L24.3987 7.55859Z" fill="#35508C"/>
<path d="M15.4457 0L15.4433 6.12578C15.4738 7.82109 17.0367 9.31641 18.7803 9.31641H24.9992V27.0414C24.9992 27.2938 24.8178 27.8016 24.7094 28.0477C24.2278 29.1383 23.2909 29.7641 22.1149 30.0008H2.88749C1.30848 29.718 0.167774 28.5484 0.00401374 26.982L0 3.13281C0.0586007 1.61719 1.32454 0.182812 2.88749 0H15.4457ZM20.1578 18.7664C20.1578 14.643 16.7301 11.3008 12.502 11.3008C8.27393 11.3008 4.84619 14.643 4.84619 18.7664C4.84619 22.8898 8.27393 26.232 12.502 26.232C16.7301 26.232 20.1578 22.8898 20.1578 18.7664Z" fill="#395692"/>
<path d="M18.3556 18.7647C18.3556 21.9171 15.7346 24.4733 12.5012 24.4733C9.2677 24.4733 6.64673 21.9179 6.64673 18.7647C6.64673 15.6116 9.2677 13.0562 12.5012 13.0562C15.7346 13.0562 18.3556 15.6116 18.3556 18.7647ZM14.2873 16.5952C14.1677 16.6194 14.0368 16.7108 13.9421 16.7851L11.81 18.8655C11.7442 18.8655 11.0699 18.0749 10.8612 17.9749C10.0496 17.5866 9.22676 18.4749 9.68593 19.2382C9.77263 19.3819 11.1911 20.7655 11.338 20.8499C11.6406 21.0233 11.9778 21.0147 12.2812 20.8499L15.3365 17.853C15.6897 17.114 15.1021 16.4304 14.2865 16.5952H14.2873Z" fill="#F19303"/>
</svg>
