<?xml version="1.0" encoding="UTF-8"?>
<svg id="Layer_2" data-name="Layer 2" xmlns="http://www.w3.org/2000/svg" viewBox="0 0 216.28 185.14">
  <defs>
    <style>
      .cls-1 {
        fill: #faa31e;
      }

      .cls-2 {
        fill: none;
        stroke: #faa31e;
        stroke-linecap: round;
        stroke-linejoin: round;
        stroke-width: 3.75px;
      }
    </style>
  </defs>
  <g id="Layer_1-2" data-name="Layer 1">
    <path class="cls-2" d="M102.1,56.15c9.52-13.79,7.63-32.45-4.46-44.05C85.37.31,66.61-1.48,52.33,7.76c-5.86,3.79-10.46,9.24-13.21,15.66-2.71,6.35-3.42,13.38-2.04,20.15,1.39,6.8,4.79,13.02,9.77,17.86,5.07,4.9,11.45,8.22,18.38,9.54,6.97,1.36,14.19.68,20.78-1.97,6.51-2.61,12.11-7.08,16.1-12.85Z"/>
    <path class="cls-2" d="M114.18,167.78c-9.52-13.79-7.63-32.45,4.46-44.05,12.27-11.78,31.03-13.58,45.31-4.34,5.86,3.79,10.46,9.24,13.21,15.66,2.71,6.35,3.42,13.38,2.04,20.15-1.39,6.8-4.79,13.02-9.77,17.86-5.07,4.9-11.45,8.22-18.38,9.54-6.96,1.35-14.16.66-20.73-1.98-6.53-2.6-12.14-7.06-16.14-12.84Z"/>
    <path class="cls-1" d="M108.14,26.3c-5.78,0-10.47,4.69-10.47,10.47s4.69,10.47,10.47,10.47v-20.93ZM205.81,47.23c5.78,0,10.47-4.69,10.47-10.47s-4.69-10.47-10.47-10.47v20.93ZM36.38,47.23c5.78,0,10.47-4.69,10.47-10.47s-4.69-10.47-10.47-10.47v20.93ZM10.47,26.3c-5.78,0-10.47,4.69-10.47,10.47s4.69,10.47,10.47,10.47v-20.93ZM108.14,158.86c5.78,0,10.47-4.69,10.47-10.47s-4.69-10.47-10.47-10.47v20.93ZM10.47,137.93c-5.78,0-10.47,4.69-10.47,10.47s4.69,10.47,10.47,10.47v-20.93ZM179.9,137.93c-5.78,0-10.47,4.69-10.47,10.47s4.69,10.47,10.47,10.47v-20.93ZM205.81,158.86c5.78,0,10.47-4.69,10.47-10.47s-4.69-10.47-10.47-10.47v20.93ZM108.14,47.23h97.67v-20.93h-97.67v20.93ZM36.38,26.3H10.47v20.93h25.91v-20.93ZM108.14,137.93H10.47v20.93h97.67v-20.93ZM179.9,158.86h25.91v-20.93h-25.91v20.93Z"/>
  </g>
</svg>