<svg width="29" height="29" viewBox="0 0 29 29" fill="none" xmlns="http://www.w3.org/2000/svg">
<g opacity="0.6">
<path d="M24.1668 12.0833V8.45833C24.1668 7.12364 23.0849 6.04167 21.7502 6.04167H7.25016C5.91547 6.04167 4.8335 7.12364 4.8335 8.45833V12.0833M24.1668 12.0833V22.9583C24.1668 24.2931 23.0849 25.375 21.7502 25.375H7.25016C5.91547 25.375 4.8335 24.2931 4.8335 22.9583V12.0833M24.1668 12.0833H4.8335M9.66683 3.625V8.45833M19.3335 3.625V8.45833" stroke="#395692" stroke-linecap="round"/>
<path d="M10.2708 14.5H7.85417C7.52049 14.5 7.25 14.7705 7.25 15.1042V17.5208C7.25 17.8545 7.52049 18.125 7.85417 18.125H10.2708C10.6045 18.125 10.875 17.8545 10.875 17.5208V15.1042C10.875 14.7705 10.6045 14.5 10.2708 14.5Z" fill="#FEA319"/>
<path d="M15.7083 14.5H13.2917C12.958 14.5 12.6875 14.7705 12.6875 15.1042V17.5208C12.6875 17.8545 12.958 18.125 13.2917 18.125H15.7083C16.042 18.125 16.3125 17.8545 16.3125 17.5208V15.1042C16.3125 14.7705 16.042 14.5 15.7083 14.5Z" fill="#FEA319"/>
<path d="M21.1458 14.5H18.7292C18.3955 14.5 18.125 14.7705 18.125 15.1042V17.5208C18.125 17.8545 18.3955 18.125 18.7292 18.125H21.1458C21.4795 18.125 21.75 17.8545 21.75 17.5208V15.1042C21.75 14.7705 21.4795 14.5 21.1458 14.5Z" fill="#FEA319"/>
</g>
</svg>
