<svg width="12" height="12" viewBox="0 0 12 12" fill="none" xmlns="http://www.w3.org/2000/svg">
<g clip-path="url(#clip0_226_890)">
<path d="M6.37241 2.85064C6.3397 2.81935 6.29617 2.80188 6.2509 2.80188C6.20563 2.80188 6.16211 2.81935 6.12939 2.85064L2.08423 6.71497C2.06705 6.7314 2.05338 6.75115 2.04405 6.77302C2.03472 6.79488 2.02993 6.81842 2.02996 6.84219L2.0293 10.469C2.0293 10.6555 2.10338 10.8343 2.23524 10.9662C2.3671 11.098 2.54594 11.1721 2.73242 11.1721H4.84399C4.93723 11.1721 5.02665 11.1351 5.09259 11.0692C5.15852 11.0032 5.19556 10.9138 5.19556 10.8206V7.83228C5.19556 7.78566 5.21408 7.74095 5.24704 7.70798C5.28001 7.67502 5.32472 7.6565 5.37134 7.6565H7.12915C7.17577 7.6565 7.22048 7.67502 7.25345 7.70798C7.28641 7.74095 7.30493 7.78566 7.30493 7.83228V10.8206C7.30493 10.9138 7.34197 11.0032 7.4079 11.0692C7.47383 11.1351 7.56325 11.1721 7.65649 11.1721H9.76719C9.95367 11.1721 10.1325 11.098 10.2644 10.9662C10.3962 10.8343 10.4703 10.6555 10.4703 10.469V6.84219C10.4703 6.81842 10.4655 6.79488 10.4562 6.77302C10.4469 6.75115 10.4332 6.7314 10.416 6.71497L6.37241 2.85064Z" fill="#FEA319"/>
<path d="M11.4116 5.99023L9.76805 4.41787V2.03186C9.76805 1.93862 9.73101 1.8492 9.66508 1.78327C9.59914 1.71734 9.50972 1.6803 9.41648 1.6803H8.3618C8.26856 1.6803 8.17914 1.71734 8.1132 1.78327C8.04727 1.8492 8.01023 1.93862 8.01023 2.03186V2.73499L6.73758 1.51814C6.61849 1.39773 6.44139 1.32874 6.25001 1.32874C6.05928 1.32874 5.88262 1.39773 5.76353 1.51836L1.08995 5.98979C0.95328 6.12163 0.936141 6.3385 1.06051 6.48132C1.09174 6.51737 1.12998 6.54669 1.1729 6.56749C1.21582 6.5883 1.26252 6.60015 1.31017 6.60233C1.35781 6.60451 1.40541 6.59697 1.45005 6.58017C1.49469 6.56337 1.53544 6.53766 1.56983 6.50461L6.12916 2.14788C6.16187 2.11658 6.20539 2.09912 6.25067 2.09912C6.29594 2.09912 6.33946 2.11658 6.37217 2.14788L10.9319 6.50461C10.9991 6.56903 11.0891 6.60418 11.1821 6.60237C11.2752 6.60055 11.3637 6.56192 11.4283 6.49495C11.5632 6.3552 11.552 6.12449 11.4116 5.99023Z" fill="#FEA319"/>
</g>
<rect x="0.636719" y="0.636719" width="11.2266" height="11.2266" stroke="url(#paint0_linear_226_890)" stroke-width="0.0234375"/>
<defs>
<linearGradient id="paint0_linear_226_890" x1="0.625" y1="0.625" x2="11.7665" y2="0.625" gradientUnits="userSpaceOnUse">
<stop stop-color="#395692"/>
<stop offset="0.5" stop-color="#E0E1E2"/>
<stop offset="1" stop-color="#F19303"/>
</linearGradient>
<clipPath id="clip0_226_890">
<rect x="0.625" y="0.625" width="11.25" height="11.25" fill="white"/>
</clipPath>
</defs>
</svg>
