<svg width="28" height="32" viewBox="0 0 28 32" fill="none" xmlns="http://www.w3.org/2000/svg">
<path d="M7.0498 15C7.60209 15 8.0498 14.1046 8.0498 13C8.0498 11.8954 7.60209 11 7.0498 11C6.49752 11 6.0498 11.8954 6.0498 13C6.0498 14.1046 6.49752 15 7.0498 15Z" fill="#FEA319"/>
<path d="M7.0498 21C7.60209 21 8.0498 20.1046 8.0498 19C8.0498 17.8954 7.60209 17 7.0498 17C6.49752 17 6.0498 17.8954 6.0498 19C6.0498 20.1046 6.49752 21 7.0498 21Z" fill="#FEA319"/>
<path d="M7.0498 25C7.60209 25 8.0498 24.5523 8.0498 24C8.0498 23.4477 7.60209 23 7.0498 23C6.49752 23 6.0498 23.4477 6.0498 24C6.0498 24.5523 6.49752 25 7.0498 25Z" fill="#FEA319"/>
<path d="M20.6808 13.8H12.4188C11.6631 13.8 11.0498 13.1728 11.0498 12.4C11.0498 11.6272 11.6631 11 12.4188 11H20.6808C21.4379 11 22.0498 11.6272 22.0498 12.4C22.0498 13.1728 21.4379 13.8 20.6808 13.8ZM20.6808 19.4H12.4188C11.6631 19.4 11.0498 18.7728 11.0498 18C11.0498 17.2272 11.6631 16.6 12.4188 16.6H20.6808C21.4379 16.6 22.0498 17.2272 22.0498 18C22.0498 18.7728 21.4379 19.4 20.6808 19.4ZM20.6808 25H12.4188C11.6631 25 11.0498 24.3742 11.0498 23.6C11.0498 22.8258 11.6631 22.2 12.4188 22.2H20.6808C21.4379 22.2 22.0498 22.8258 22.0498 23.6C22.0498 24.3742 21.4379 25 20.6808 25Z" fill="#FEA319"/>
<path d="M24.3498 2.66667H20.2998C20.2998 1.2 19.0848 0 17.5998 0H9.4998C8.0148 0 6.7998 1.2 6.7998 2.66667H2.7498C1.2648 2.66667 0.0498047 3.86667 0.0498047 5.33333V29.3333C0.0498047 30.8 1.2648 32 2.7498 32H24.3498C25.8348 32 27.0498 30.8 27.0498 29.3333V5.33333C27.0498 3.86667 25.8348 2.66667 24.3498 2.66667ZM9.4998 4.66667V3.33333C9.4998 2.96533 9.80221 2.66667 10.1748 2.66667H16.9248C17.2974 2.66667 17.5998 2.96533 17.5998 3.33333V4.66667C17.5998 5.03467 17.2974 5.33333 16.9248 5.33333H10.1748C9.80221 5.33333 9.4998 5.03467 9.4998 4.66667ZM24.3498 28.6667V28.6707C24.3458 29.0373 24.0461 29.3333 23.6748 29.3333H3.44505L3.4248 29.3373C3.0522 29.3373 2.7498 29.0387 2.7498 28.6707V6C2.7498 5.632 3.0522 5.33333 3.4248 5.33333H6.7998C6.7998 6.8 8.0148 8 9.4998 8H17.5998C19.0848 8 20.2998 6.8 20.2998 5.33333H23.6748C24.0488 5.33333 24.3498 5.632 24.3498 6V28.6667Z" fill="#395692"/>
</svg>
