<svg width="36" height="27" viewBox="0 0 36 27" fill="none" xmlns="http://www.w3.org/2000/svg">
<path d="M25.6502 15.7768C26.7989 15.7768 27.9005 15.325 28.7127 14.5207C29.525 13.7165 29.9813 12.6257 29.9813 11.4884C29.9813 10.351 29.525 9.26023 28.7127 8.456C27.9005 7.65176 26.7989 7.19995 25.6502 7.19995C24.5015 7.19995 23.3999 7.65176 22.5876 8.456C21.7754 9.26023 21.3191 10.351 21.3191 11.4884C21.3191 12.6257 21.7754 13.7165 22.5876 14.5207C23.3999 15.325 24.5015 15.7768 25.6502 15.7768ZM25.6502 17.6609C19.8917 17.6609 16.2002 20.8073 16.2002 22.3393V25.2H35.1002V22.3393C35.1002 20.4867 31.6054 17.6609 25.6502 17.6609Z" fill="#FEA319"/>
<path d="M13.95 12.8652C15.6457 12.8652 17.2719 12.1875 18.4709 10.9812C19.6699 9.77481 20.3435 8.13865 20.3435 6.43261C20.3435 4.72658 19.6699 3.09042 18.4709 1.88407C17.2719 0.67772 15.6457 0 13.95 0C12.2543 0 10.6281 0.67772 9.42909 1.88407C8.23006 3.09042 7.55646 4.72658 7.55646 6.43261C7.55646 8.13865 8.23006 9.77481 9.42909 10.9812C10.6281 12.1875 12.2543 12.8652 13.95 12.8652ZM13.95 15.6914C5.44938 15.6914 0 20.4111 0 22.709V27H27.9V22.709C27.9 19.9301 22.741 15.6914 13.95 15.6914Z" fill="#395692"/>
</svg>
