<svg width="35" height="32" viewBox="0 0 35 32" fill="none" xmlns="http://www.w3.org/2000/svg">
<path d="M7.52259 24.229C9.50419 26.9564 12.4034 28.8772 15.6876 29.6385C18.9719 30.3997 22.4204 29.9503 25.3998 28.3727C28.3794 26.7952 30.6894 24.1956 31.9058 21.0514C33.1222 17.9072 33.1632 14.4297 32.0211 11.2577C30.8792 8.08573 28.631 5.43236 25.6896 3.78509C22.7482 2.13781 19.311 1.60726 16.0098 2.2909C12.7086 2.97456 9.76492 4.82649 7.71962 7.50648C5.67433 10.1865 4.66477 13.5145 4.87647 16.879M4.87647 16.879L2.25146 14.254M4.87647 16.879L7.50147 14.254" stroke="#395692" stroke-width="3" stroke-linecap="round" stroke-linejoin="round"/>
<path d="M18.8486 9V16L24.0986 21.25" stroke="#FEA319" stroke-width="3" stroke-linecap="round" stroke-linejoin="round"/>
</svg>
