<?xml version="1.0" encoding="UTF-8"?>
<svg id="Layer_2" data-name="Layer 2" xmlns="http://www.w3.org/2000/svg" viewBox="0 0 230.23 253.85">
  <defs>
    <style>
      .cls-1, .cls-2 {
        fill: #5dbb54;
      }

      .cls-2 {
        fill-rule: evenodd;
      }
    </style>
  </defs>
  <g id="Layer_1-2" data-name="Layer 1">
    <path class="cls-2" d="M197.24,0c-5.11,0-9.8,0-13.61.51-4.2.56-8.63,1.89-12.28,5.54-3.65,3.65-4.98,8.08-5.54,12.28-.51,3.81-.51,8.5-.51,13.61v154.55c0,5.11,0,9.79.51,13.61.56,4.2,1.89,8.63,5.54,12.28,3.65,3.65,8.08,4.98,12.28,5.54,3.81.51,8.5.51,13.61.51h1.06c5.11,0,9.79,0,13.61-.51,4.2-.56,8.63-1.89,12.28-5.54,3.65-3.65,4.98-8.08,5.54-12.28.51-3.81.51-8.5.51-13.61V31.94c0-5.11,0-9.8-.51-13.61-.56-4.2-1.89-8.63-5.54-12.28-3.65-3.65-8.08-4.98-12.28-5.54C208.09,0,203.4,0,198.29,0h-1.06ZM183.9,18.56l-.03.02-.02.03s-.03.06-.06.12c-.11.26-.29.83-.44,1.97-.33,2.49-.35,5.96-.35,11.78v153.49c0,5.82.02,9.29.35,11.78.15,1.14.33,1.71.44,1.97.02.06.04.1.06.12l.02.03.03.02.04.02s.05.02.08.04c.26.11.83.29,1.97.44,2.49.33,5.96.35,11.77.35s9.29-.02,11.77-.35c1.14-.15,1.71-.33,1.97-.44.06-.02.1-.04.12-.06l.03-.02.02-.03s.03-.06.06-.12c.11-.26.29-.83.44-1.97.33-2.49.35-5.96.35-11.78V32.47c0-5.82-.02-9.29-.35-11.78-.15-1.14-.33-1.71-.44-1.97-.02-.06-.04-.1-.06-.12l-.02-.03-.03-.02s-.06-.03-.12-.06c-.26-.11-.83-.29-1.97-.44-2.49-.33-5.96-.35-11.77-.35s-9.29.02-11.77.35c-1.14.15-1.71.33-1.97.44-.06.02-.1.04-.12.06Z"/>
    <path class="cls-2" d="M114.59,35.42h1.06c5.11,0,9.79,0,13.61.51,4.2.56,8.63,1.89,12.28,5.54,3.65,3.65,4.98,8.08,5.54,12.28.51,3.81.51,8.5.51,13.61v119.13c0,5.11,0,9.79-.51,13.61-.56,4.2-1.89,8.63-5.54,12.28-3.65,3.65-8.08,4.98-12.28,5.54-3.81.51-8.5.51-13.61.51h-1.06c-5.11,0-9.8,0-13.61-.51-4.2-.56-8.63-1.89-12.28-5.54-3.65-3.65-4.98-8.08-5.54-12.28-.51-3.81-.51-8.5-.51-13.61v-119.12c0-5.11,0-9.8.51-13.61.56-4.2,1.89-8.63,5.54-12.28,3.65-3.65,8.08-4.98,12.28-5.54,3.81-.51,8.5-.51,13.61-.51ZM101.22,54l.03-.02-.03,145.87-.02-.03s-.03-.06-.06-.12c-.11-.26-.29-.83-.44-1.97-.33-2.49-.35-5.96-.35-11.78v-118.07c0-5.82.02-9.29.35-11.78.15-1.14.33-1.71.44-1.97.02-.06.04-.1.06-.12l.02-.03ZM101.22,199.85l.03-145.87.04-.02.08-.03c.26-.11.83-.29,1.97-.44,2.49-.33,5.96-.35,11.77-.35s9.29.02,11.78.35c1.14.15,1.71.33,1.97.44.06.02.1.04.12.06l.03.02.02.03s.03.06.06.12c.11.26.29.83.44,1.97.33,2.49.35,5.96.35,11.78v118.07c0,5.82-.02,9.29-.35,11.78-.15,1.14-.33,1.71-.44,1.97-.02.06-.04.1-.06.12l-.02.03-.03.02s-.04.02-.07.03c-.02,0-.03.01-.05.02-.26.11-.83.29-1.97.44-2.49.33-5.96.35-11.78.35s-9.29-.02-11.77-.35c-1.14-.15-1.71-.33-1.97-.44-.06-.02-.1-.04-.12-.06l-.03-.02Z"/>
    <path class="cls-2" d="M31.94,82.65c-5.11,0-9.8,0-13.61.51-4.2.56-8.63,1.89-12.28,5.54-3.65,3.65-4.98,8.08-5.54,12.28C0,104.79,0,109.48,0,114.59v71.9c0,5.11,0,9.79.51,13.61.56,4.2,1.89,8.63,5.54,12.28,3.65,3.65,8.08,4.98,12.28,5.54,3.81.51,8.5.51,13.61.51h1.06c5.11,0,9.8,0,13.61-.51,4.2-.56,8.63-1.89,12.28-5.54,3.65-3.65,4.98-8.08,5.54-12.28.51-3.81.51-8.5.51-13.61v-71.9c0-5.11,0-9.8-.51-13.61-.56-4.2-1.89-8.63-5.54-12.28-3.65-3.65-8.08-4.98-12.28-5.54-3.81-.51-8.5-.51-13.61-.51h-1.06ZM18.6,101.21l-.03.02-.02.03s-.03.06-.06.12c-.11.26-.29.83-.44,1.97-.33,2.49-.35,5.96-.35,11.77v70.84c0,5.82.02,9.29.35,11.78.15,1.14.33,1.71.44,1.97.02.06.04.1.06.12v.02s.04.02.04.02c.02.01.06.03.12.06.26.11.83.29,1.97.44,2.49.33,5.96.35,11.78.35s9.29-.02,11.78-.35c1.14-.15,1.71-.33,1.97-.44.06-.02.1-.04.12-.06l.03-.02.02-.03.03-.05.03-.07c.11-.26.29-.83.44-1.97.33-2.49.35-5.96.35-11.78v-70.84c0-5.82-.02-9.29-.35-11.77-.15-1.14-.33-1.71-.44-1.97-.02-.06-.04-.1-.06-.12l-.02-.03-.03-.02s-.06-.03-.12-.06c-.26-.11-.83-.29-1.97-.44-2.49-.33-5.96-.35-11.78-.35s-9.29.02-11.78.35c-1.14.15-1.71.33-1.97.44-.06.02-.1.04-.12.06Z"/>
    <path class="cls-1" d="M8.86,236.14C3.96,236.14,0,240.1,0,244.99s3.96,8.86,8.86,8.86h212.52c4.89,0,8.86-3.96,8.86-8.86s-3.96-8.86-8.86-8.86H8.86Z"/>
  </g>
</svg>