<svg width="43" height="43" viewBox="0 0 43 43" fill="none" xmlns="http://www.w3.org/2000/svg">
<g opacity="0.4">
<path d="M21.7162 22.8976C21.5908 22.8796 21.4295 22.8796 21.2862 22.8976C18.1328 22.7901 15.6245 20.2101 15.6245 17.0388C15.6245 13.7959 18.2403 11.1621 21.5012 11.1621C24.7441 11.1621 27.3778 13.7959 27.3778 17.0388C27.3599 20.2101 24.8695 22.7901 21.7162 22.8976Z" stroke="#F19303" stroke-width="3.75" stroke-linecap="round" stroke-linejoin="round"/>
<path d="M21.7162 22.8976C21.5908 22.8796 21.4295 22.8796 21.2862 22.8976C18.1328 22.7901 15.6245 20.2101 15.6245 17.0388C15.6245 13.7959 18.2403 11.1621 21.5012 11.1621C24.7441 11.1621 27.3778 13.7959 27.3778 17.0388C27.3599 20.2101 24.8695 22.7901 21.7162 22.8976Z" stroke="#395692" stroke-width="3.75" stroke-linecap="round" stroke-linejoin="round"/>
</g>
<g opacity="0.34">
<path d="M33.5755 34.7229C30.3864 37.6433 26.158 39.4171 21.4997 39.4171C16.8413 39.4171 12.613 37.6433 9.42383 34.7229C9.60299 33.0387 10.678 31.3904 12.5951 30.1004C17.5042 26.8396 25.531 26.8396 30.4043 30.1004C32.3214 31.3904 33.3964 33.0387 33.5755 34.7229Z" stroke="#F19303" stroke-width="3.75" stroke-linecap="round" stroke-linejoin="round"/>
<path d="M33.5755 34.7229C30.3864 37.6433 26.158 39.4171 21.4997 39.4171C16.8413 39.4171 12.613 37.6433 9.42383 34.7229C9.60299 33.0387 10.678 31.3904 12.5951 30.1004C17.5042 26.8396 25.531 26.8396 30.4043 30.1004C32.3214 31.3904 33.3964 33.0387 33.5755 34.7229Z" stroke="#395692" stroke-width="3.75" stroke-linecap="round" stroke-linejoin="round"/>
</g>
<path d="M21.5002 39.4168C31.3952 39.4168 39.4168 31.3952 39.4168 21.5002C39.4168 11.6051 31.3952 3.5835 21.5002 3.5835C11.6051 3.5835 3.5835 11.6051 3.5835 21.5002C3.5835 31.3952 11.6051 39.4168 21.5002 39.4168Z" stroke="#FEA319" stroke-width="2" stroke-linecap="round" stroke-linejoin="round"/>
<path d="M21.5002 39.4168C31.3952 39.4168 39.4168 31.3952 39.4168 21.5002C39.4168 11.6051 31.3952 3.5835 21.5002 3.5835C11.6051 3.5835 3.5835 11.6051 3.5835 21.5002C3.5835 31.3952 11.6051 39.4168 21.5002 39.4168Z" stroke="#395692" stroke-width="2" stroke-linecap="round" stroke-linejoin="round"/>
<path d="M21.5002 39.4168C31.3952 39.4168 39.4168 31.3952 39.4168 21.5002C39.4168 11.6051 31.3952 3.5835 21.5002 3.5835C11.6051 3.5835 3.5835 11.6051 3.5835 21.5002C3.5835 31.3952 11.6051 39.4168 21.5002 39.4168Z" stroke="#3699DD" stroke-width="2" stroke-linecap="round" stroke-linejoin="round"/>
<path d="M21.5002 39.4168C31.3952 39.4168 39.4168 31.3952 39.4168 21.5002C39.4168 11.6051 31.3952 3.5835 21.5002 3.5835C11.6051 3.5835 3.5835 11.6051 3.5835 21.5002C3.5835 31.3952 11.6051 39.4168 21.5002 39.4168Z" stroke="black" stroke-width="2" stroke-linecap="round" stroke-linejoin="round"/>
</svg>
