<svg width="35" height="34" viewBox="0 0 35 34" fill="none" xmlns="http://www.w3.org/2000/svg">
<path d="M20.495 2.125C20.7199 2.12501 20.9391 2.19641 21.1208 2.32892C21.3026 2.46143 21.4376 2.64822 21.5065 2.86238L22.6752 6.494C23.1661 6.73413 23.6357 7.004 24.0841 7.30787L27.8156 6.50463C28.0356 6.45765 28.2649 6.48172 28.4703 6.57338C28.6758 6.66503 28.8468 6.81953 28.9589 7.01463L31.9041 12.1125C32.0166 12.3075 32.0642 12.5331 32.0401 12.7569C32.0161 12.9808 31.9216 13.1911 31.7702 13.3577L29.2096 16.184C29.2469 16.7259 29.2469 17.2698 29.2096 17.8118L31.7702 20.6423C31.9216 20.8089 32.0161 21.0193 32.0401 21.2431C32.0642 21.4669 32.0166 21.6925 31.9041 21.8875L28.9589 26.9875C28.8465 27.1822 28.6753 27.3363 28.4699 27.4275C28.2645 27.5188 28.0354 27.5425 27.8156 27.4954L24.0841 26.6921C23.6379 26.9939 23.1661 27.2659 22.6774 27.506L21.5065 31.1376C21.4376 31.3518 21.3026 31.5386 21.1208 31.6711C20.9391 31.8036 20.7199 31.875 20.495 31.875H14.6045C14.3795 31.875 14.1604 31.8036 13.9786 31.6711C13.7968 31.5386 13.6618 31.3518 13.593 31.1376L12.4264 27.5081C11.9368 27.2687 11.4646 26.9954 11.0132 26.69L7.28385 27.4954C7.06384 27.5423 6.8346 27.5183 6.62914 27.4266C6.42369 27.335 6.25263 27.1805 6.1406 26.9854L3.19535 21.8875C3.08289 21.6925 3.03525 21.4669 3.05931 21.2431C3.08337 21.0193 3.17789 20.8089 3.32923 20.6423L5.88985 17.8118C5.85276 17.2712 5.85276 16.7288 5.88985 16.1882L3.32923 13.3577C3.17789 13.1911 3.08337 12.9808 3.05931 12.7569C3.03525 12.5331 3.08289 12.3075 3.19535 12.1125L6.1406 7.0125C6.25294 6.81779 6.42413 6.66373 6.62956 6.57247C6.83499 6.48121 7.06407 6.45746 7.28385 6.50463L11.0132 7.31C11.4637 7.00612 11.9355 6.732 12.4264 6.49188L13.5951 2.86238C13.6637 2.64891 13.7981 2.46262 13.979 2.33017C14.1599 2.19772 14.3781 2.1259 14.6024 2.125H20.4929H20.495ZM19.7172 4.25H15.3822L14.1752 8.00487L13.3614 8.40225C12.9613 8.59804 12.575 8.82098 12.2054 9.0695L11.4531 9.5795L7.5941 8.7465L5.4266 12.5035L8.07223 15.4318L8.00848 16.3327C7.97795 16.7771 7.97795 17.2229 8.00848 17.6673L8.07223 18.5683L5.42235 21.4965L7.59198 25.2535L11.451 24.4226L12.2032 24.9305C12.5729 25.179 12.9591 25.402 13.3592 25.5977L14.1731 25.9951L15.3822 29.75H19.7215L20.9327 25.993L21.7445 25.5977C22.1441 25.4024 22.5297 25.1795 22.8984 24.9305L23.6485 24.4226L27.5096 25.2535L29.6771 21.4965L27.0294 18.5683L27.0931 17.6673C27.1237 17.2222 27.1237 16.7756 27.0931 16.3306L27.0294 15.4296L29.6792 12.5035L27.5096 8.7465L23.6485 9.57525L22.8984 9.0695C22.5297 8.82048 22.1442 8.59752 21.7445 8.40225L20.9327 8.007L19.7194 4.25H19.7172ZM17.5497 10.625C19.2405 10.625 20.862 11.2966 22.0575 12.4922C23.2531 13.6877 23.9247 15.3092 23.9247 17C23.9247 18.6908 23.2531 20.3123 22.0575 21.5078C20.862 22.7034 19.2405 23.375 17.5497 23.375C15.859 23.375 14.2375 22.7034 13.0419 21.5078C11.8464 20.3123 11.1747 18.6908 11.1747 17C11.1747 15.3092 11.8464 13.6877 13.0419 12.4922C14.2375 11.2966 15.859 10.625 17.5497 10.625ZM17.5497 12.75C16.4226 12.75 15.3416 13.1978 14.5445 13.9948C13.7475 14.7918 13.2997 15.8728 13.2997 17C13.2997 18.1272 13.7475 19.2082 14.5445 20.0052C15.3416 20.8022 16.4226 21.25 17.5497 21.25C18.6769 21.25 19.7579 20.8022 20.5549 20.0052C21.352 19.2082 21.7997 18.1272 21.7997 17C21.7997 15.8728 21.352 14.7918 20.5549 13.9948C19.7579 13.1978 18.6769 12.75 17.5497 12.75Z" fill="#395692"/>
</svg>
