<svg width="25" height="30" viewBox="0 0 25 30" fill="none" xmlns="http://www.w3.org/2000/svg">
<path d="M24.3989 7.55859H18.7805C18.1351 7.55859 17.248 6.89844 17.248 6.23984V0.527344L24.3989 7.55859Z" fill="#35508C"/>
<path d="M15.4457 0L15.4433 6.12578C15.4738 7.82109 17.0367 9.31641 18.7803 9.31641H24.9992V27.0414C24.9992 27.2938 24.8178 27.8016 24.7094 28.0477C24.2278 29.1383 23.2909 29.7641 22.1149 30.0008H2.88749C1.30848 29.718 0.167774 28.5484 0.00401374 26.982L0 3.13281C0.0586007 1.61719 1.32454 0.182812 2.88749 0H15.4457ZM20.1578 18.7664C20.1578 14.643 16.7301 11.3008 12.502 11.3008C8.27393 11.3008 4.84619 14.643 4.84619 18.7664C4.84619 22.8898 8.27393 26.232 12.502 26.232C16.7301 26.232 20.1578 22.8898 20.1578 18.7664Z" fill="#395692"/>
<path d="M17 14.5L8.5 22.5M17 22L8.5 14.5" stroke="#F19303" stroke-width="3"/>
</svg>
