<svg width="31" height="29" viewBox="0 0 31 29" fill="none" xmlns="http://www.w3.org/2000/svg">
<path d="M15.5498 13.8182C17.3731 13.8182 19.1217 13.0903 20.411 11.7946C21.7003 10.4989 22.4246 8.74151 22.4246 6.9091C22.4246 5.07669 21.7003 3.31934 20.411 2.02363C19.1217 0.727921 17.3731 0 15.5498 0C13.7265 0 11.9779 0.727921 10.6886 2.02363C9.39934 3.31934 8.67503 5.07669 8.67503 6.9091C8.67503 8.74151 9.39934 10.4989 10.6886 11.7946C11.9779 13.0903 13.7265 13.8182 15.5498 13.8182ZM15.5498 16.8537C6.40935 16.8537 0.549805 21.923 0.549805 24.3912V29H30.5498V24.3912C30.5498 21.4064 25.0025 16.8537 15.5498 16.8537Z" fill="#395692"/>
</svg>
